<?xml version="1.0" standalone="no"?>
<!DOCTYPE svg PUBLIC "-//W3C//DTD SVG 20010904//EN"
 "http://www.w3.org/TR/2001/REC-SVG-20010904/DTD/svg10.dtd">
<svg version="1.0" xmlns="http://www.w3.org/2000/svg"
 width="802.000000pt" height="802.000000pt" viewBox="0 0 802.000000 802.000000"
 preserveAspectRatio="xMidYMid meet">
<metadata>
Created by potrace 1.11, written by Peter Selinger 2001-2013
</metadata>
<g transform="translate(0.000000,802.000000) scale(0.100000,-0.100000)"
fill="#000000" stroke="none">
<path d="M1455 7659 c-22 -4 -53 -10 -70 -13 -96 -17 -262 -86 -390 -161 -87
-51 -242 -159 -276 -194 -9 -9 -42 -38 -74 -65 -118 -102 -297 -296 -407 -441
-60 -79 -61 -80 -132 -101 -95 -27 -99 -30 -92 -68 3 -17 8 -62 12 -101 3 -38
10 -80 15 -92 6 -16 2 -28 -16 -47 l-24 -26 3 -903 c3 -784 6 -917 20 -1014
14 -92 18 -199 19 -567 l2 -453 25 -35 c14 -20 54 -68 90 -108 83 -93 93 -112
123 -250 27 -119 30 -136 47 -255 6 -38 12 -77 15 -85 2 -8 6 -40 10 -70 6
-57 11 -95 21 -142 7 -35 65 -145 117 -223 42 -62 177 -203 236 -245 92 -67
206 -179 260 -253 39 -55 161 -188 270 -294 80 -79 182 -153 271 -199 179 -91
293 -208 434 -441 80 -134 190 -225 356 -295 106 -45 370 -121 515 -149 51
-10 229 -13 275 -5 14 3 48 7 75 11 149 18 294 58 580 159 234 82 604 264 945
464 203 119 745 481 845 564 6 5 57 45 115 89 58 45 123 96 145 114 22 18 78
63 125 101 72 57 165 136 389 330 20 17 91 68 159 115 248 170 277 191 280
197 1 4 -14 25 -33 47 -39 45 -41 53 -21 69 24 19 168 196 257 316 459 616
796 1368 939 2100 11 52 22 106 25 120 3 14 8 43 11 65 2 22 7 51 9 65 2 14 7
48 11 75 3 28 8 59 10 70 2 11 7 49 10 85 3 36 7 81 9 100 14 136 18 259 17
490 -1 146 -3 283 -6 305 -3 22 -8 78 -11 125 -5 76 -17 167 -29 225 -19 92
-78 199 -138 250 -205 173 -567 87 -1108 -264 -73 -47 -234 -158 -265 -183 -5
-5 -35 -27 -65 -50 -99 -75 -243 -191 -362 -291 -115 -96 -118 -98 -150 -88
-28 8 -128 29 -218 45 -14 2 -77 16 -140 29 -63 14 -135 28 -160 32 -24 4 -47
8 -50 10 -3 2 -21 6 -40 9 -19 3 -46 8 -60 12 -14 3 -45 10 -70 15 -25 4 -56
11 -70 13 -41 9 -383 77 -410 82 -14 3 -97 19 -185 36 -88 16 -171 32 -185 35
-14 2 -56 10 -95 18 -38 8 -134 26 -212 40 -79 14 -153 28 -165 31 -13 2 -48
8 -78 14 -30 6 -66 12 -80 15 -14 3 -50 9 -80 15 -30 6 -64 12 -75 14 -71 14
-197 36 -235 41 -24 4 -47 8 -50 10 -3 2 -26 6 -50 10 -25 3 -52 8 -60 10 -8
2 -33 7 -55 10 -23 3 -52 8 -65 10 -14 3 -81 14 -150 25 -69 11 -163 27 -210
35 -47 7 -105 16 -130 20 -25 3 -70 10 -100 15 -72 12 -112 17 -185 25 -33 4
-62 9 -65 10 -3 2 -5 59 -4 127 1 125 -14 272 -36 363 -42 166 -165 308 -285
329 -16 3 -52 10 -80 15 -58 11 -231 11 -290 0z m270 -160 c96 -15 100 -17
140 -56 78 -76 117 -223 119 -448 l1 -140 -60 1 c-33 0 -109 4 -170 9 -195 16
-659 10 -775 -9 -14 -3 -53 -7 -86 -10 -75 -7 -125 -14 -184 -26 -25 -5 -68
-12 -95 -15 -28 -4 -79 -13 -114 -21 -35 -8 -65 -13 -67 -12 -9 10 229 257
346 359 234 204 485 339 678 365 26 3 48 7 49 8 8 7 167 4 218 -5z m5980 -593
c73 -48 113 -161 129 -366 3 -30 8 -91 12 -135 8 -96 8 -599 0 -670 -3 -27 -8
-75 -11 -105 -11 -116 -16 -167 -26 -230 -6 -36 -12 -83 -15 -105 -4 -38 -14
-98 -20 -120 -4 -17 -12 -56 -33 -166 -49 -247 -193 -705 -287 -907 -13 -29
-24 -55 -24 -59 0 -9 -176 -363 -214 -428 -19 -33 -44 -78 -56 -100 -103 -189
-311 -484 -498 -707 l-73 -88 -100 114 -99 113 -88 5 c-57 3 -104 12 -133 25
-89 40 -156 120 -184 220 -7 27 -26 80 -43 118 -27 62 -88 235 -97 275 -2 8
-9 38 -15 65 -43 182 -57 315 -54 499 1 94 5 185 7 201 3 17 8 50 11 75 4 25
21 113 37 195 17 83 33 159 35 170 2 11 13 70 24 130 11 61 24 133 30 160 5
28 12 73 16 100 3 28 8 59 10 70 2 11 6 43 9 70 3 28 7 61 10 75 2 14 7 50 10
80 3 30 8 66 10 80 3 14 7 57 10 95 3 39 8 86 10 105 2 19 7 82 10 140 l5 105
58 53 c31 30 120 104 197 166 403 323 683 507 975 639 74 34 190 67 256 73 38
4 70 8 72 9 7 6 104 -24 127 -39z"/>
</g>
</svg>
